<?xml version="1.0" encoding="UTF-8"?><svg id="a" xmlns="http://www.w3.org/2000/svg" viewBox="0 0 297.02 80.98"><defs><style>.b{fill:#fff;}</style></defs><path class="b" d="M125.76,32.23c-.33.4-.95.37-1.15.4-3.4.47-7.37-.23-10.85.08-6.55.15-14.08-.12-20.57.2-1.12.04-2.19.4-3.06,1.12-7.89,6.02-10.36,27.34-18.91,28.94-2.04.26-4.16-1.83-5.33-3.57-9.05-13.99-16.58-38.8-29.22-18.75-1.13,1.64-1.92,3.36-3.04,5.09-1.07,1.68-3.27,3.59-4.94,3.67-6.4.63-10.35-12.18-16.15-15.74-2.97-1.48-6.81-.68-10-1.01-.94-.06-2.67-.99-2.54-1.82.61-1.54,6.51-1.4,8.24-1.42,7.36.34,15.61.23,22.94.06,5.02-.06,7.61-4.79,11.02-9.22,2.11-2.79,4.63-6.68,7.88-7.3,2.62-.55,5.14,2.4,6.67,4.73,5.6,8.54,10.7,10.94,13.4,11.1C78.73,29.29,83.21-.12,91.36,0c7.99.12,12.06,28.48,24.17,29.07,2.89.14,8.98-1.18,10.09,1.02.13.27.67,1.51.15,2.15Z"/><path class="b" d="M97.56,50.98c-2.14,0-3.95-.72-5.43-2.17-1.48-1.45-2.22-3.22-2.22-5.33s.74-3.89,2.22-5.33c1.48-1.45,3.29-2.17,5.43-2.17,1.74,0,3.29.5,4.63,1.5,1.35,1,2.25,2.29,2.72,3.89h-2.93c-.38-.82-.97-1.48-1.75-1.98-.79-.5-1.68-.74-2.67-.74-1.37,0-2.53.46-3.47,1.39-.94.93-1.41,2.08-1.41,3.45s.47,2.52,1.41,3.45c.94.93,2.1,1.39,3.47,1.39.95,0,1.81-.23,2.58-.7.77-.47,1.36-1.1,1.77-1.9h2.95c-.48,1.56-1.39,2.83-2.72,3.8-1.33.97-2.86,1.46-4.59,1.46Z"/><path class="b" d="M106.91,50.98v-5.21c0-1.57.39-2.75,1.17-3.55.78-.79,1.8-1.19,3.07-1.19h.12v2.52h-.1c-1.12,0-1.68.74-1.68,2.22v5.21h-2.58Z"/><path class="b" d="M118.39,50.98c-1.41,0-2.62-.48-3.62-1.46-1-.97-1.5-2.14-1.5-3.52s.5-2.55,1.5-3.52c1-.97,2.2-1.46,3.62-1.46s2.62.49,3.61,1.46,1.49,2.14,1.49,3.52v4.82h-2.58v-1.02c-.15.32-.46.6-.95.83-.49.23-1.01.35-1.57.35ZM116.58,47.81c.49.48,1.1.72,1.82.72s1.33-.24,1.8-.72c.48-.48.71-1.08.71-1.8s-.24-1.32-.71-1.8c-.48-.48-1.08-.72-1.8-.72s-1.33.24-1.82.72c-.49.48-.73,1.08-.73,1.8s.24,1.32.73,1.8Z"/><path class="b" d="M130.59,50.98c-1.41,0-2.61-.48-3.61-1.46-.99-.97-1.49-2.14-1.49-3.52s.5-2.55,1.49-3.52c.99-.97,2.2-1.46,3.61-1.46,1.16,0,2.19.34,3.09,1.01.9.67,1.5,1.54,1.81,2.59h-2.73c-.49-.77-1.21-1.16-2.15-1.16-.72,0-1.33.24-1.82.72-.49.48-.73,1.08-.73,1.8s.24,1.32.73,1.8c.49.48,1.09.72,1.82.72.88,0,1.57-.35,2.08-1.06h2.79c-.32,1.03-.92,1.87-1.82,2.53-.9.66-1.92.98-3.06.98Z"/><path class="b" d="M138.99,42.49c1-.97,2.2-1.46,3.62-1.46s2.62.49,3.62,1.46c1,.97,1.5,2.14,1.5,3.52s-.5,2.55-1.5,3.52c-1,.97-2.2,1.46-3.62,1.46s-2.62-.48-3.62-1.46c-1-.97-1.5-2.14-1.5-3.52s.5-2.55,1.5-3.52ZM144.43,44.21c-.48-.48-1.08-.72-1.8-.72s-1.33.24-1.82.72c-.49.48-.73,1.08-.73,1.8s.24,1.32.73,1.8c.49.48,1.1.72,1.82.72s1.33-.24,1.8-.72c.48-.48.71-1.08.71-1.8s-.24-1.32-.71-1.8Z"/><path class="b" d="M161.69,41.08h2.62l-3.09,9.91h-2.58l-1.76-5.94-1.78,5.94h-2.58l-3.07-9.91h2.62l1.74,6.52,1.78-6.52h2.58l1.76,6.52,1.76-6.52Z"/><path class="b" d="M103.78,80.98c-3.85,0-7.11-1.3-9.77-3.9-2.66-2.6-4-5.8-4-9.6s1.33-7,4-9.6c2.66-2.6,5.92-3.9,9.77-3.9,3.14,0,5.91.9,8.34,2.7,2.42,1.8,4.05,4.13,4.9,7h-5.28c-.69-1.48-1.74-2.67-3.16-3.56-1.42-.89-3.02-1.34-4.8-1.34-2.47,0-4.56.84-6.25,2.51s-2.54,3.74-2.54,6.2.85,4.53,2.54,6.2c1.7,1.67,3.78,2.51,6.25,2.51,1.71,0,3.26-.42,4.65-1.26,1.39-.84,2.45-1.98,3.19-3.41h5.32c-.87,2.82-2.5,5.1-4.9,6.84-2.4,1.75-5.15,2.62-8.26,2.62Z"/><path class="b" d="M122.93,63.94c1.95-1.95,4.3-2.92,7.06-2.92s5.11.97,7.06,2.92c1.95,1.95,2.92,4.3,2.92,7.06s-.97,5.11-2.92,7.06c-1.95,1.95-4.3,2.92-7.06,2.92s-5.11-.97-7.06-2.92c-1.95-1.95-2.92-4.3-2.92-7.06s.97-5.11,2.92-7.06ZM133.56,67.38c-.93-.97-2.1-1.45-3.52-1.45s-2.61.48-3.56,1.45c-.95.97-1.43,2.17-1.43,3.62s.48,2.65,1.43,3.62c.95.97,2.14,1.45,3.56,1.45s2.59-.48,3.52-1.45,1.39-2.17,1.39-3.62-.46-2.65-1.39-3.62Z"/><path class="b" d="M154.98,80.98v-10.34c0-1.6-.28-2.77-.83-3.52s-1.44-1.12-2.65-1.12-2.1.37-2.65,1.12c-.56.75-.83,1.92-.83,3.52v10.34h-5.03v-10.34c0-3.2.77-5.6,2.32-7.21s3.61-2.42,6.19-2.42,4.64.81,6.19,2.42,2.32,4.02,2.32,7.21v10.34h-5.03Z"/><path class="b" d="M164.94,80.98v-14.33h-2.9v-4.88h2.98c.21-2.43,1.03-4.34,2.46-5.72s3.42-2.07,5.98-2.07v4.88c-.98.03-1.79.29-2.44.81-.65.51-.97,1.22-.97,2.11h3.41v4.88h-3.48v14.33h-5.03Z"/><path class="b" d="M176.46,71.04c0-2.73.95-5.09,2.84-7.06,1.9-1.97,4.22-2.96,6.99-2.96,2.58,0,4.88.86,6.91,2.59,2.02,1.73,3.09,4.05,3.19,6.97.03.83-.03,1.63-.15,2.4h-14.36c.23.95.74,1.71,1.53,2.26.79.55,1.75.83,2.88.83,1.29,0,2.4-.37,3.33-1.12l6,.04c-.8,1.78-2.03,3.23-3.68,4.33-1.65,1.11-3.48,1.66-5.49,1.66-2.79,0-5.15-.97-7.08-2.9s-2.9-4.28-2.9-7.04ZM181.88,68.95h9.13c-.39-.9-1-1.63-1.84-2.19-.84-.55-1.75-.83-2.73-.83-2.19,0-3.71,1.01-4.57,3.02Z"/><path class="b" d="M199.39,80.98v-10.46c0-3.16.76-5.53,2.28-7.12,1.52-1.59,3.52-2.39,6-2.39h.23v5.05h-.19c-2.19,0-3.29,1.49-3.29,4.45v10.46h-5.03Z"/><path class="b" d="M210.91,71.04c0-2.73.95-5.09,2.84-7.06,1.9-1.97,4.22-2.96,6.99-2.96,2.58,0,4.88.86,6.91,2.59,2.02,1.73,3.09,4.05,3.19,6.97.03.83-.03,1.63-.15,2.4h-14.36c.23.95.74,1.71,1.53,2.26.79.55,1.75.83,2.88.83,1.29,0,2.4-.37,3.33-1.12l6,.04c-.8,1.78-2.03,3.23-3.68,4.33-1.65,1.11-3.48,1.66-5.49,1.66-2.79,0-5.15-.97-7.08-2.9s-2.9-4.28-2.9-7.04ZM216.32,68.95h9.13c-.39-.9-1-1.63-1.84-2.19-.84-.55-1.75-.83-2.73-.83-2.19,0-3.71,1.01-4.57,3.02Z"/><path class="b" d="M245.83,80.98v-10.34c0-1.6-.28-2.77-.83-3.52s-1.44-1.12-2.65-1.12-2.1.37-2.65,1.12c-.56.75-.83,1.92-.83,3.52v10.34h-5.03v-10.34c0-3.2.77-5.6,2.32-7.21s3.61-2.42,6.19-2.42,4.64.81,6.19,2.42,2.32,4.02,2.32,7.21v10.34h-5.03Z"/><path class="b" d="M263.85,80.98c-2.76,0-5.11-.97-7.06-2.92-1.95-1.95-2.92-4.3-2.92-7.06s.97-5.11,2.92-7.06c1.95-1.95,4.3-2.92,7.06-2.92,2.27,0,4.29.68,6.06,2.03,1.77,1.35,2.95,3.09,3.54,5.2h-5.34c-.95-1.55-2.36-2.32-4.22-2.32-1.42,0-2.61.48-3.56,1.45-.95.97-1.43,2.17-1.43,3.62s.48,2.65,1.43,3.62c.95.97,2.14,1.45,3.56,1.45,1.73,0,3.08-.71,4.06-2.13h5.46c-.62,2.06-1.81,3.75-3.56,5.07-1.75,1.32-3.75,1.97-6,1.97Z"/><path class="b" d="M276.44,71.04c0-2.73.98-5.09,2.94-7.06,1.96-1.97,4.36-2.96,7.21-2.96,2.66,0,5.04.86,7.13,2.59,2.09,1.73,3.19,4.05,3.3,6.97.03.83-.03,1.63-.16,2.4h-14.82c.24.95.77,1.71,1.58,2.26.81.55,1.8.83,2.98.83,1.33,0,2.48-.37,3.44-1.12l6.19.04c-.83,1.78-2.09,3.23-3.8,4.33-1.7,1.11-3.6,1.66-5.67,1.66-2.88,0-5.31-.97-7.31-2.9s-3-4.28-3-7.04ZM282.03,68.95h9.43c-.4-.9-1.03-1.63-1.9-2.19-.87-.55-1.8-.83-2.82-.83-2.26,0-3.84,1.01-4.71,3.02Z"/><path class="b" d="M231.65,49.73c-1.02.84-2.28,1.26-3.8,1.26s-2.74-.47-3.78-1.42c-1.03-.95-1.55-2.14-1.55-3.56h2.76c0,.73.24,1.3.73,1.71.49.41,1.14.62,1.94.62,1.64,0,2.46-.66,2.46-1.97,0-.42-.14-.77-.41-1.06-.28-.29-.63-.51-1.06-.66-.43-.15-.91-.3-1.44-.43-.53-.13-1.06-.29-1.59-.47-.53-.18-1.01-.41-1.44-.68-.43-.27-.78-.67-1.06-1.18-.28-.52-.41-1.13-.41-1.84,0-1.31.42-2.32,1.27-3.01.85-.69,2.02-1.04,3.52-1.04s2.64.41,3.5,1.23c.86.82,1.29,1.95,1.29,3.38h-2.76c0-.7-.17-1.2-.51-1.5-.34-.3-.85-.45-1.53-.45-1.36,0-2.04.49-2.04,1.47,0,.47.18.86.55,1.14.37.29.83.48,1.38.59.55.1,1.15.25,1.78.43.64.18,1.23.39,1.78.63.55.24,1.01.65,1.38,1.24.37.59.55,1.33.55,2.22,0,1.41-.51,2.54-1.53,3.37Z"/><path class="b" d="M240.29,50.99c-1.41,0-2.62-.48-3.62-1.46-1-.97-1.5-2.14-1.5-3.52s.5-2.55,1.5-3.52c1-.97,2.2-1.46,3.62-1.46,1.16,0,2.2.34,3.1,1.01.9.67,1.51,1.54,1.81,2.59h-2.73c-.49-.77-1.21-1.16-2.16-1.16-.73,0-1.33.24-1.82.72-.49.48-.73,1.08-.73,1.8s.24,1.32.73,1.8c.49.48,1.1.72,1.82.72.88,0,1.58-.35,2.08-1.06h2.79c-.32,1.03-.92,1.87-1.82,2.53-.9.66-1.92.98-3.07.98Z"/><path class="b" d="M248.49,39.99c-.44,0-.8-.15-1.1-.45s-.45-.67-.45-1.1.15-.79.45-1.08c.3-.3.66-.45,1.1-.45s.78.15,1.08.45c.3.3.45.66.45,1.08s-.15.81-.45,1.1c-.3.3-.66.45-1.08.45ZM247.2,50.99v-9.94h2.58v9.94h-2.58Z"/><path class="b" d="M251.78,46.03c0-1.36.49-2.54,1.46-3.52.97-.98,2.16-1.47,3.58-1.47,1.32,0,2.5.43,3.54,1.29,1.04.86,1.58,2.02,1.63,3.47.01.41-.01.81-.08,1.2h-7.35c.12.48.38.85.78,1.13.4.28.89.41,1.48.41.66,0,1.23-.19,1.7-.56l3.07.02c-.41.89-1.04,1.61-1.88,2.16-.85.55-1.78.83-2.81.83-1.43,0-2.64-.48-3.63-1.45s-1.49-2.13-1.49-3.51ZM254.55,44.99h4.68c-.2-.45-.51-.81-.94-1.09-.43-.28-.9-.41-1.4-.41-1.12,0-1.9.5-2.34,1.5Z"/><path class="b" d="M270.13,50.98v-5.15c0-.8-.14-1.38-.43-1.75-.28-.37-.74-.56-1.36-.56s-1.07.19-1.36.56c-.28.37-.43.96-.43,1.75v5.15h-2.58v-5.15c0-1.59.4-2.79,1.19-3.59.79-.8,1.85-1.2,3.17-1.2s2.38.4,3.17,1.2c.79.8,1.19,2,1.19,3.59v5.15h-2.58Z"/><path class="b" d="M279.82,50.98c-1.41,0-2.62-.48-3.62-1.46-1-.97-1.5-2.14-1.5-3.52s.5-2.55,1.5-3.52c1-.97,2.2-1.46,3.62-1.46,1.16,0,2.2.34,3.1,1.01.9.67,1.51,1.54,1.81,2.59h-2.73c-.49-.77-1.21-1.16-2.16-1.16-.73,0-1.33.24-1.82.72-.49.48-.73,1.08-.73,1.8s.24,1.32.73,1.8c.49.48,1.1.72,1.82.72.88,0,1.58-.35,2.08-1.06h2.79c-.32,1.03-.92,1.87-1.82,2.53-.9.66-1.92.98-3.07.98Z"/><path class="b" d="M286.81,46.03c0-1.36.49-2.54,1.46-3.52.97-.98,2.16-1.47,3.58-1.47,1.32,0,2.5.43,3.54,1.29,1.04.86,1.58,2.02,1.63,3.47.01.41-.01.81-.08,1.2h-7.35c.12.48.38.85.78,1.13.4.28.89.41,1.48.41.66,0,1.23-.19,1.7-.56l3.07.02c-.41.89-1.04,1.61-1.88,2.16-.85.55-1.78.83-2.81.83-1.43,0-2.64-.48-3.63-1.45s-1.49-2.13-1.49-3.51ZM289.59,44.99h4.68c-.2-.45-.51-.81-.94-1.09-.43-.28-.9-.41-1.4-.41-1.12,0-1.9.5-2.34,1.5Z"/><path class="b" d="M175.85,35.98c2.17,0,4,.71,5.49,2.14,1.49,1.43,2.23,3.21,2.23,5.36s-.74,3.93-2.23,5.36c-1.49,1.43-3.31,2.14-5.49,2.14h-4.39v-15h4.39ZM175.85,48.37c1.41,0,2.59-.46,3.53-1.39.94-.93,1.4-2.09,1.4-3.49s-.47-2.56-1.4-3.49c-.94-.93-2.11-1.39-3.53-1.39h-1.61v9.77h1.61Z"/><path class="b" d="M190.68,50.99c-1.41,0-2.62-.48-3.62-1.46-1-.97-1.5-2.14-1.5-3.52s.5-2.55,1.5-3.52c1-.97,2.2-1.46,3.62-1.46s2.62.49,3.61,1.46,1.49,2.14,1.49,3.52v4.82h-2.58v-1.02c-.15.32-.46.6-.95.83-.49.23-1.01.35-1.57.35ZM188.88,47.81c.49.48,1.1.72,1.82.72s1.33-.24,1.8-.72c.48-.48.71-1.08.71-1.8s-.24-1.32-.71-1.8c-.48-.48-1.08-.72-1.8-.72s-1.33.24-1.82.72c-.49.48-.73,1.08-.73,1.8s.24,1.32.73,1.8Z"/><path class="b" d="M203.6,43.55h-1.78v2.71c0,.79.14,1.36.42,1.7.28.34.73.51,1.37.51v2.51c-1.33,0-2.39-.39-3.18-1.17-.79-.78-1.18-1.96-1.18-3.56v-2.71h-1.47v-2.51h1.47v-3.93h2.58v3.93h1.78v2.51Z"/><path class="b" d="M210.71,50.99c-1.41,0-2.62-.48-3.62-1.46-1-.97-1.5-2.14-1.5-3.52s.5-2.55,1.5-3.52c1-.97,2.2-1.46,3.62-1.46s2.62.49,3.61,1.46,1.49,2.14,1.49,3.52v4.82h-2.58v-1.02c-.15.32-.46.6-.95.83-.49.23-1.01.35-1.57.35ZM208.91,47.81c.49.48,1.1.72,1.82.72s1.33-.24,1.8-.72c.48-.48.71-1.08.71-1.8s-.24-1.32-.71-1.8c-.48-.48-1.08-.72-1.8-.72s-1.33.24-1.82.72c-.49.48-.73,1.08-.73,1.8s.24,1.32.73,1.8Z"/></svg>